<mxfile host="app.diagrams.net" modified="2023-04-08T04:14:55.788Z" agent="Mozilla/5.0 (Windows NT 10.0; Win64; x64) AppleWebKit/537.36 (KHTML, like Gecko) Chrome/111.0.0.0 Safari/537.36" etag="zH_PkrxO25iEe1QfvvHB" version="21.1.5" type="device">
  <diagram name="Page-1" id="vIIgdCT6AuowpmLAOBOT">
    <mxGraphModel dx="1050" dy="1719" grid="1" gridSize="10" guides="1" tooltips="1" connect="1" arrows="1" fold="1" page="1" pageScale="1" pageWidth="850" pageHeight="1100" math="0" shadow="0">
      <root>
        <mxCell id="0" />
        <mxCell id="1" parent="0" />
        <mxCell id="uQ26_WENKduQW5tb3NPD-1" value="Admin" style="shape=umlActor;verticalLabelPosition=bottom;verticalAlign=top;html=1;outlineConnect=0;" parent="1" vertex="1">
          <mxGeometry x="70" y="200" width="30" height="60" as="geometry" />
        </mxCell>
        <mxCell id="uQ26_WENKduQW5tb3NPD-4" value="Sửa thông tin Sản Phẩm" style="ellipse;whiteSpace=wrap;html=1;" parent="1" vertex="1">
          <mxGeometry x="240" y="210" width="90" height="60" as="geometry" />
        </mxCell>
        <mxCell id="uQ26_WENKduQW5tb3NPD-5" value="" style="endArrow=classic;html=1;rounded=0;entryX=0;entryY=0.5;entryDx=0;entryDy=0;" parent="1" target="uQ26_WENKduQW5tb3NPD-4" edge="1">
          <mxGeometry width="50" height="50" relative="1" as="geometry">
            <mxPoint x="80" y="240" as="sourcePoint" />
            <mxPoint x="450" y="280" as="targetPoint" />
          </mxGeometry>
        </mxCell>
        <mxCell id="uQ26_WENKduQW5tb3NPD-6" value="Đăng Nhập" style="ellipse;whiteSpace=wrap;html=1;" parent="1" vertex="1">
          <mxGeometry x="480" y="210" width="90" height="60" as="geometry" />
        </mxCell>
        <mxCell id="uQ26_WENKduQW5tb3NPD-9" value="" style="endArrow=classic;dashed=1;html=1;rounded=0;entryX=0;entryY=0.5;entryDx=0;entryDy=0;exitX=1;exitY=0.5;exitDx=0;exitDy=0;endFill=1;" parent="1" source="uQ26_WENKduQW5tb3NPD-4" target="uQ26_WENKduQW5tb3NPD-6" edge="1">
          <mxGeometry width="50" height="50" relative="1" as="geometry">
            <mxPoint x="400" y="320" as="sourcePoint" />
            <mxPoint x="450" y="270" as="targetPoint" />
          </mxGeometry>
        </mxCell>
        <mxCell id="uQ26_WENKduQW5tb3NPD-10" value="&amp;lt;&amp;lt;include&amp;gt;" style="edgeLabel;html=1;align=center;verticalAlign=middle;resizable=0;points=[];" parent="uQ26_WENKduQW5tb3NPD-9" vertex="1" connectable="0">
          <mxGeometry x="-0.6027" y="1" relative="1" as="geometry">
            <mxPoint x="40" y="1" as="offset" />
          </mxGeometry>
        </mxCell>
        <mxCell id="uQ26_WENKduQW5tb3NPD-11" value="Admin" style="shape=umlActor;verticalLabelPosition=bottom;verticalAlign=top;html=1;outlineConnect=0;" parent="1" vertex="1">
          <mxGeometry x="90" y="370" width="30" height="60" as="geometry" />
        </mxCell>
        <mxCell id="uQ26_WENKduQW5tb3NPD-12" value="Xác nhân đơn hàng thanh toán Online/thanh toán Offline" style="ellipse;whiteSpace=wrap;html=1;" parent="1" vertex="1">
          <mxGeometry x="240" y="360" width="190" height="80" as="geometry" />
        </mxCell>
        <mxCell id="uQ26_WENKduQW5tb3NPD-13" value="" style="endArrow=classic;html=1;rounded=0;entryX=0;entryY=0.5;entryDx=0;entryDy=0;exitX=0.5;exitY=0.5;exitDx=0;exitDy=0;exitPerimeter=0;" parent="1" source="uQ26_WENKduQW5tb3NPD-11" target="uQ26_WENKduQW5tb3NPD-12" edge="1">
          <mxGeometry width="50" height="50" relative="1" as="geometry">
            <mxPoint x="120" y="400" as="sourcePoint" />
            <mxPoint x="450" y="440" as="targetPoint" />
          </mxGeometry>
        </mxCell>
        <mxCell id="uQ26_WENKduQW5tb3NPD-14" value="Đăng Nhập" style="ellipse;whiteSpace=wrap;html=1;" parent="1" vertex="1">
          <mxGeometry x="560" y="370" width="90" height="60" as="geometry" />
        </mxCell>
        <mxCell id="uQ26_WENKduQW5tb3NPD-15" value="" style="endArrow=classic;dashed=1;html=1;rounded=0;exitX=1;exitY=0.5;exitDx=0;exitDy=0;endFill=1;" parent="1" target="uQ26_WENKduQW5tb3NPD-14" edge="1">
          <mxGeometry width="50" height="50" relative="1" as="geometry">
            <mxPoint x="430" y="399.5" as="sourcePoint" />
            <mxPoint x="560" y="399.5" as="targetPoint" />
          </mxGeometry>
        </mxCell>
        <mxCell id="uQ26_WENKduQW5tb3NPD-17" value="&amp;lt;&amp;lt;include&amp;gt;&amp;gt;" style="edgeLabel;html=1;align=center;verticalAlign=middle;resizable=0;points=[];" parent="uQ26_WENKduQW5tb3NPD-15" vertex="1" connectable="0">
          <mxGeometry x="-0.1877" relative="1" as="geometry">
            <mxPoint as="offset" />
          </mxGeometry>
        </mxCell>
        <mxCell id="uQ26_WENKduQW5tb3NPD-18" value="Xoá thông tin Sản Phẩm" style="ellipse;whiteSpace=wrap;html=1;" parent="1" vertex="1">
          <mxGeometry x="240" y="110" width="90" height="60" as="geometry" />
        </mxCell>
        <mxCell id="uQ26_WENKduQW5tb3NPD-19" value="" style="endArrow=classic;html=1;rounded=0;entryX=0;entryY=0.5;entryDx=0;entryDy=0;exitX=1;exitY=0.3333333333333333;exitDx=0;exitDy=0;exitPerimeter=0;" parent="1" source="uQ26_WENKduQW5tb3NPD-1" target="uQ26_WENKduQW5tb3NPD-18" edge="1">
          <mxGeometry width="50" height="50" relative="1" as="geometry">
            <mxPoint x="400" y="310" as="sourcePoint" />
            <mxPoint x="450" y="260" as="targetPoint" />
          </mxGeometry>
        </mxCell>
        <mxCell id="uQ26_WENKduQW5tb3NPD-20" value="" style="endArrow=classic;dashed=1;html=1;rounded=0;exitX=1;exitY=0.5;exitDx=0;exitDy=0;entryX=0.5;entryY=0;entryDx=0;entryDy=0;endFill=1;" parent="1" source="uQ26_WENKduQW5tb3NPD-18" target="uQ26_WENKduQW5tb3NPD-6" edge="1">
          <mxGeometry width="50" height="50" relative="1" as="geometry">
            <mxPoint x="400" y="310" as="sourcePoint" />
            <mxPoint x="450" y="260" as="targetPoint" />
          </mxGeometry>
        </mxCell>
        <mxCell id="uQ26_WENKduQW5tb3NPD-21" value="&amp;lt;&amp;lt;include&amp;gt;&amp;gt;" style="edgeLabel;html=1;align=center;verticalAlign=middle;resizable=0;points=[];" parent="uQ26_WENKduQW5tb3NPD-20" vertex="1" connectable="0">
          <mxGeometry x="-0.1226" y="1" relative="1" as="geometry">
            <mxPoint as="offset" />
          </mxGeometry>
        </mxCell>
        <mxCell id="uQ26_WENKduQW5tb3NPD-22" value="&lt;span style=&quot;font-weight: normal;&quot;&gt;Admin&lt;/span&gt;" style="shape=umlActor;verticalLabelPosition=bottom;verticalAlign=top;html=1;outlineConnect=0;fontStyle=1" parent="1" vertex="1">
          <mxGeometry x="90" y="520" width="30" height="60" as="geometry" />
        </mxCell>
        <mxCell id="uQ26_WENKduQW5tb3NPD-23" value="Thủ Kho" style="shape=umlActor;verticalLabelPosition=bottom;verticalAlign=top;html=1;outlineConnect=0;" parent="1" vertex="1">
          <mxGeometry x="90" y="650" width="30" height="60" as="geometry" />
        </mxCell>
        <mxCell id="uQ26_WENKduQW5tb3NPD-25" value="Nhập Kho" style="ellipse;whiteSpace=wrap;html=1;" parent="1" vertex="1">
          <mxGeometry x="250" y="525" width="120" height="50" as="geometry" />
        </mxCell>
        <mxCell id="uQ26_WENKduQW5tb3NPD-26" value="Xuất Kho" style="ellipse;whiteSpace=wrap;html=1;" parent="1" vertex="1">
          <mxGeometry x="240" y="640" width="120" height="50" as="geometry" />
        </mxCell>
        <mxCell id="uQ26_WENKduQW5tb3NPD-27" value="" style="endArrow=classic;html=1;rounded=0;entryX=0;entryY=0.5;entryDx=0;entryDy=0;exitX=0.5;exitY=0.5;exitDx=0;exitDy=0;exitPerimeter=0;" parent="1" source="uQ26_WENKduQW5tb3NPD-22" target="uQ26_WENKduQW5tb3NPD-25" edge="1">
          <mxGeometry width="50" height="50" relative="1" as="geometry">
            <mxPoint x="100" y="615" as="sourcePoint" />
            <mxPoint x="450" y="660" as="targetPoint" />
          </mxGeometry>
        </mxCell>
        <mxCell id="uQ26_WENKduQW5tb3NPD-28" value="" style="endArrow=classic;html=1;rounded=0;exitX=0.5;exitY=0.5;exitDx=0;exitDy=0;exitPerimeter=0;entryX=0.043;entryY=0.692;entryDx=0;entryDy=0;entryPerimeter=0;" parent="1" source="uQ26_WENKduQW5tb3NPD-23" target="uQ26_WENKduQW5tb3NPD-26" edge="1">
          <mxGeometry width="50" height="50" relative="1" as="geometry">
            <mxPoint x="400" y="710" as="sourcePoint" />
            <mxPoint x="450" y="660" as="targetPoint" />
          </mxGeometry>
        </mxCell>
        <mxCell id="uQ26_WENKduQW5tb3NPD-29" value="" style="endArrow=classic;html=1;rounded=0;exitX=1;exitY=0.3333333333333333;exitDx=0;exitDy=0;exitPerimeter=0;entryX=0.5;entryY=1;entryDx=0;entryDy=0;" parent="1" source="uQ26_WENKduQW5tb3NPD-23" target="uQ26_WENKduQW5tb3NPD-25" edge="1">
          <mxGeometry width="50" height="50" relative="1" as="geometry">
            <mxPoint x="400" y="710" as="sourcePoint" />
            <mxPoint x="450" y="660" as="targetPoint" />
          </mxGeometry>
        </mxCell>
        <mxCell id="uQ26_WENKduQW5tb3NPD-30" value="" style="endArrow=classic;html=1;rounded=0;exitX=1;exitY=0.3333333333333333;exitDx=0;exitDy=0;exitPerimeter=0;entryX=0.5;entryY=0;entryDx=0;entryDy=0;" parent="1" source="uQ26_WENKduQW5tb3NPD-22" target="uQ26_WENKduQW5tb3NPD-26" edge="1">
          <mxGeometry width="50" height="50" relative="1" as="geometry">
            <mxPoint x="400" y="710" as="sourcePoint" />
            <mxPoint x="450" y="660" as="targetPoint" />
          </mxGeometry>
        </mxCell>
        <mxCell id="uQ26_WENKduQW5tb3NPD-32" value="Đăng Nhập" style="ellipse;whiteSpace=wrap;html=1;" parent="1" vertex="1">
          <mxGeometry x="500" y="575" width="90" height="60" as="geometry" />
        </mxCell>
        <mxCell id="uQ26_WENKduQW5tb3NPD-33" value="" style="endArrow=classic;dashed=1;html=1;rounded=0;exitX=1;exitY=0.5;exitDx=0;exitDy=0;endFill=1;entryX=0;entryY=0.5;entryDx=0;entryDy=0;" parent="1" source="uQ26_WENKduQW5tb3NPD-25" target="uQ26_WENKduQW5tb3NPD-32" edge="1">
          <mxGeometry width="50" height="50" relative="1" as="geometry">
            <mxPoint x="400" y="710" as="sourcePoint" />
            <mxPoint x="450" y="660" as="targetPoint" />
          </mxGeometry>
        </mxCell>
        <mxCell id="uQ26_WENKduQW5tb3NPD-35" value="&amp;lt;&amp;lt;include&amp;gt;&amp;gt;" style="edgeLabel;html=1;align=center;verticalAlign=middle;resizable=0;points=[];" parent="uQ26_WENKduQW5tb3NPD-33" vertex="1" connectable="0">
          <mxGeometry x="-0.3636" y="-2" relative="1" as="geometry">
            <mxPoint x="12" y="9" as="offset" />
          </mxGeometry>
        </mxCell>
        <mxCell id="uQ26_WENKduQW5tb3NPD-34" value="" style="endArrow=classic;dashed=1;html=1;rounded=0;exitX=1;exitY=0.5;exitDx=0;exitDy=0;endFill=1;entryX=0.058;entryY=0.76;entryDx=0;entryDy=0;entryPerimeter=0;" parent="1" source="uQ26_WENKduQW5tb3NPD-26" target="uQ26_WENKduQW5tb3NPD-32" edge="1">
          <mxGeometry width="50" height="50" relative="1" as="geometry">
            <mxPoint x="370" y="625" as="sourcePoint" />
            <mxPoint x="460" y="670" as="targetPoint" />
          </mxGeometry>
        </mxCell>
        <mxCell id="uQ26_WENKduQW5tb3NPD-36" value="&amp;lt;&amp;lt;include&amp;gt;&amp;gt;" style="edgeLabel;html=1;align=center;verticalAlign=middle;resizable=0;points=[];" parent="uQ26_WENKduQW5tb3NPD-34" vertex="1" connectable="0">
          <mxGeometry x="-0.4435" y="-3" relative="1" as="geometry">
            <mxPoint x="13" y="-8" as="offset" />
          </mxGeometry>
        </mxCell>
        <mxCell id="uQ26_WENKduQW5tb3NPD-37" value="Khách" style="shape=umlActor;verticalLabelPosition=bottom;verticalAlign=top;html=1;outlineConnect=0;" parent="1" vertex="1">
          <mxGeometry x="80" y="902.5" width="30" height="60" as="geometry" />
        </mxCell>
        <mxCell id="uQ26_WENKduQW5tb3NPD-40" value="Xem chi tiết sản phẩm" style="ellipse;whiteSpace=wrap;html=1;" parent="1" vertex="1">
          <mxGeometry x="210" y="910" width="75" height="45" as="geometry" />
        </mxCell>
        <mxCell id="uQ26_WENKduQW5tb3NPD-41" value="" style="endArrow=classic;html=1;rounded=0;entryX=0;entryY=0.5;entryDx=0;entryDy=0;exitX=0.5;exitY=0.5;exitDx=0;exitDy=0;exitPerimeter=0;" parent="1" source="uQ26_WENKduQW5tb3NPD-37" target="uQ26_WENKduQW5tb3NPD-40" edge="1">
          <mxGeometry width="50" height="50" relative="1" as="geometry">
            <mxPoint x="180" y="920" as="sourcePoint" />
            <mxPoint x="450" y="950" as="targetPoint" />
          </mxGeometry>
        </mxCell>
        <mxCell id="uQ26_WENKduQW5tb3NPD-42" value="Thêm sản phẩm vào Giỏ" style="ellipse;whiteSpace=wrap;html=1;" parent="1" vertex="1">
          <mxGeometry x="197.5" y="810" width="100" height="50" as="geometry" />
        </mxCell>
        <mxCell id="uQ26_WENKduQW5tb3NPD-43" value="" style="endArrow=classic;dashed=1;html=1;rounded=0;entryX=0.5;entryY=0;entryDx=0;entryDy=0;exitX=0.5;exitY=1;exitDx=0;exitDy=0;endFill=1;" parent="1" source="uQ26_WENKduQW5tb3NPD-42" target="uQ26_WENKduQW5tb3NPD-40" edge="1">
          <mxGeometry width="50" height="50" relative="1" as="geometry">
            <mxPoint x="400" y="990" as="sourcePoint" />
            <mxPoint x="450" y="940" as="targetPoint" />
          </mxGeometry>
        </mxCell>
        <mxCell id="uQ26_WENKduQW5tb3NPD-44" value="&amp;lt;&amp;lt;Include&amp;gt;&amp;gt;" style="edgeLabel;html=1;align=center;verticalAlign=middle;resizable=0;points=[];" parent="uQ26_WENKduQW5tb3NPD-43" vertex="1" connectable="0">
          <mxGeometry x="0.2711" relative="1" as="geometry">
            <mxPoint y="-13" as="offset" />
          </mxGeometry>
        </mxCell>
        <mxCell id="uQ26_WENKduQW5tb3NPD-48" value="Đăng nhập" style="ellipse;whiteSpace=wrap;html=1;" parent="1" vertex="1">
          <mxGeometry x="540" y="902.5" width="90" height="55" as="geometry" />
        </mxCell>
        <mxCell id="uQ26_WENKduQW5tb3NPD-50" value="Đăng ký" style="ellipse;whiteSpace=wrap;html=1;" parent="1" vertex="1">
          <mxGeometry x="540" y="1010" width="90" height="60" as="geometry" />
        </mxCell>
        <mxCell id="uQ26_WENKduQW5tb3NPD-51" value="" style="endArrow=classic;dashed=1;html=1;rounded=0;entryX=0.5;entryY=0;entryDx=0;entryDy=0;exitX=0.5;exitY=1;exitDx=0;exitDy=0;endFill=1;" parent="1" source="uQ26_WENKduQW5tb3NPD-48" target="uQ26_WENKduQW5tb3NPD-50" edge="1">
          <mxGeometry width="50" height="50" relative="1" as="geometry">
            <mxPoint x="400" y="890" as="sourcePoint" />
            <mxPoint x="450" y="840" as="targetPoint" />
          </mxGeometry>
        </mxCell>
        <mxCell id="uQ26_WENKduQW5tb3NPD-52" value="&amp;lt;&amp;lt;include&amp;gt;&amp;gt;" style="edgeLabel;html=1;align=center;verticalAlign=middle;resizable=0;points=[];" parent="uQ26_WENKduQW5tb3NPD-51" vertex="1" connectable="0">
          <mxGeometry x="-0.3888" y="1" relative="1" as="geometry">
            <mxPoint as="offset" />
          </mxGeometry>
        </mxCell>
        <mxCell id="uQ26_WENKduQW5tb3NPD-53" value="Mua sản phẩm" style="ellipse;whiteSpace=wrap;html=1;" parent="1" vertex="1">
          <mxGeometry x="410" y="902.5" width="60" height="55" as="geometry" />
        </mxCell>
        <mxCell id="uQ26_WENKduQW5tb3NPD-54" value="" style="endArrow=none;dashed=1;html=1;rounded=0;exitX=1;exitY=0.5;exitDx=0;exitDy=0;entryX=0;entryY=0.5;entryDx=0;entryDy=0;startArrow=classic;startFill=1;" parent="1" source="uQ26_WENKduQW5tb3NPD-40" target="uQ26_WENKduQW5tb3NPD-53" edge="1">
          <mxGeometry width="50" height="50" relative="1" as="geometry">
            <mxPoint x="400" y="890" as="sourcePoint" />
            <mxPoint x="450" y="840" as="targetPoint" />
          </mxGeometry>
        </mxCell>
        <mxCell id="uQ26_WENKduQW5tb3NPD-56" value="&amp;lt;&amp;lt;dependency&amp;gt;&amp;gt;" style="edgeLabel;html=1;align=center;verticalAlign=middle;resizable=0;points=[];" parent="uQ26_WENKduQW5tb3NPD-54" vertex="1" connectable="0">
          <mxGeometry x="-0.3157" y="-1" relative="1" as="geometry">
            <mxPoint x="22" y="-3" as="offset" />
          </mxGeometry>
        </mxCell>
        <mxCell id="uQ26_WENKduQW5tb3NPD-58" value="" style="endArrow=classic;dashed=1;html=1;rounded=0;entryX=0;entryY=0.5;entryDx=0;entryDy=0;exitX=1;exitY=0.5;exitDx=0;exitDy=0;endFill=1;" parent="1" source="uQ26_WENKduQW5tb3NPD-53" target="uQ26_WENKduQW5tb3NPD-48" edge="1">
          <mxGeometry width="50" height="50" relative="1" as="geometry">
            <mxPoint x="400" y="890" as="sourcePoint" />
            <mxPoint x="450" y="840" as="targetPoint" />
          </mxGeometry>
        </mxCell>
        <mxCell id="uQ26_WENKduQW5tb3NPD-61" value="&amp;lt;&amp;lt;include&amp;gt;&amp;gt;" style="edgeLabel;html=1;align=center;verticalAlign=middle;resizable=0;points=[];" parent="uQ26_WENKduQW5tb3NPD-58" vertex="1" connectable="0">
          <mxGeometry x="-0.3486" relative="1" as="geometry">
            <mxPoint x="7" as="offset" />
          </mxGeometry>
        </mxCell>
        <mxCell id="uQ26_WENKduQW5tb3NPD-60" value="Thanh toán online, đặt hàng" style="ellipse;whiteSpace=wrap;html=1;" parent="1" vertex="1">
          <mxGeometry x="710" y="900" width="100" height="60" as="geometry" />
        </mxCell>
        <mxCell id="uQ26_WENKduQW5tb3NPD-62" value="" style="endArrow=classic;dashed=1;html=1;rounded=0;entryX=0;entryY=0.5;entryDx=0;entryDy=0;exitX=1;exitY=0.5;exitDx=0;exitDy=0;endFill=1;" parent="1" source="uQ26_WENKduQW5tb3NPD-48" target="uQ26_WENKduQW5tb3NPD-60" edge="1">
          <mxGeometry width="50" height="50" relative="1" as="geometry">
            <mxPoint x="400" y="880" as="sourcePoint" />
            <mxPoint x="450" y="830" as="targetPoint" />
          </mxGeometry>
        </mxCell>
        <mxCell id="uQ26_WENKduQW5tb3NPD-63" value="&amp;lt;&amp;lt;include&amp;gt;&amp;gt;" style="edgeLabel;html=1;align=center;verticalAlign=middle;resizable=0;points=[];" parent="uQ26_WENKduQW5tb3NPD-62" vertex="1" connectable="0">
          <mxGeometry x="-0.28" y="1" relative="1" as="geometry">
            <mxPoint x="1" y="1" as="offset" />
          </mxGeometry>
        </mxCell>
        <mxCell id="uQ26_WENKduQW5tb3NPD-65" value="Admin" style="shape=umlActor;verticalLabelPosition=bottom;verticalAlign=top;html=1;outlineConnect=0;" parent="1" vertex="1">
          <mxGeometry x="50" y="-110" width="30" height="60" as="geometry" />
        </mxCell>
        <mxCell id="uQ26_WENKduQW5tb3NPD-67" value="Thêm loại sản phẩm" style="ellipse;whiteSpace=wrap;html=1;" parent="1" vertex="1">
          <mxGeometry x="197.5" y="-190" width="90" height="60" as="geometry" />
        </mxCell>
        <mxCell id="uQ26_WENKduQW5tb3NPD-68" value="Sửa loại sản phẩm" style="ellipse;whiteSpace=wrap;html=1;" parent="1" vertex="1">
          <mxGeometry x="197.5" y="-30" width="90" height="60" as="geometry" />
        </mxCell>
        <mxCell id="uQ26_WENKduQW5tb3NPD-69" value="Đăng Nhập" style="ellipse;whiteSpace=wrap;html=1;" parent="1" vertex="1">
          <mxGeometry x="370" y="-110" width="90" height="60" as="geometry" />
        </mxCell>
        <mxCell id="uQ26_WENKduQW5tb3NPD-70" value="" style="endArrow=classic;html=1;rounded=0;exitX=1;exitY=1;exitDx=0;exitDy=0;exitPerimeter=0;entryX=0;entryY=0.5;entryDx=0;entryDy=0;" parent="1" source="uQ26_WENKduQW5tb3NPD-65" target="uQ26_WENKduQW5tb3NPD-68" edge="1">
          <mxGeometry width="50" height="50" relative="1" as="geometry">
            <mxPoint x="400" y="80" as="sourcePoint" />
            <mxPoint x="450" y="30" as="targetPoint" />
          </mxGeometry>
        </mxCell>
        <mxCell id="uQ26_WENKduQW5tb3NPD-71" value="" style="endArrow=classic;html=1;rounded=0;exitX=0.75;exitY=0.1;exitDx=0;exitDy=0;exitPerimeter=0;entryX=0;entryY=0.5;entryDx=0;entryDy=0;" parent="1" source="uQ26_WENKduQW5tb3NPD-65" target="uQ26_WENKduQW5tb3NPD-67" edge="1">
          <mxGeometry width="50" height="50" relative="1" as="geometry">
            <mxPoint x="400" y="80" as="sourcePoint" />
            <mxPoint x="450" y="30" as="targetPoint" />
          </mxGeometry>
        </mxCell>
        <mxCell id="uQ26_WENKduQW5tb3NPD-75" value="" style="endArrow=classic;dashed=1;html=1;rounded=0;exitX=1;exitY=0.5;exitDx=0;exitDy=0;entryX=0.302;entryY=0.023;entryDx=0;entryDy=0;entryPerimeter=0;endFill=1;" parent="1" source="uQ26_WENKduQW5tb3NPD-67" target="uQ26_WENKduQW5tb3NPD-69" edge="1">
          <mxGeometry width="50" height="50" relative="1" as="geometry">
            <mxPoint x="400" y="80" as="sourcePoint" />
            <mxPoint x="450" y="30" as="targetPoint" />
          </mxGeometry>
        </mxCell>
        <mxCell id="uQ26_WENKduQW5tb3NPD-78" value="&amp;lt;&amp;lt;include&amp;gt;&amp;gt;" style="edgeLabel;html=1;align=center;verticalAlign=middle;resizable=0;points=[];" parent="uQ26_WENKduQW5tb3NPD-75" vertex="1" connectable="0">
          <mxGeometry x="-0.3535" y="-1" relative="1" as="geometry">
            <mxPoint x="12" as="offset" />
          </mxGeometry>
        </mxCell>
        <mxCell id="uQ26_WENKduQW5tb3NPD-76" value="" style="endArrow=classic;dashed=1;html=1;rounded=0;exitX=0.973;exitY=0.67;exitDx=0;exitDy=0;exitPerimeter=0;entryX=0.5;entryY=1;entryDx=0;entryDy=0;endFill=1;" parent="1" source="uQ26_WENKduQW5tb3NPD-68" target="uQ26_WENKduQW5tb3NPD-69" edge="1">
          <mxGeometry width="50" height="50" relative="1" as="geometry">
            <mxPoint x="400" y="80" as="sourcePoint" />
            <mxPoint x="450" y="30" as="targetPoint" />
          </mxGeometry>
        </mxCell>
        <mxCell id="uQ26_WENKduQW5tb3NPD-77" value="&amp;lt;&amp;lt;include&amp;gt;&amp;gt;" style="edgeLabel;html=1;align=center;verticalAlign=middle;resizable=0;points=[];" parent="uQ26_WENKduQW5tb3NPD-76" vertex="1" connectable="0">
          <mxGeometry x="-0.2038" y="-1" relative="1" as="geometry">
            <mxPoint as="offset" />
          </mxGeometry>
        </mxCell>
        <mxCell id="uQ26_WENKduQW5tb3NPD-79" value="Người Dùng" style="shape=umlActor;verticalLabelPosition=bottom;verticalAlign=top;html=1;outlineConnect=0;" parent="1" vertex="1">
          <mxGeometry x="80" y="1125" width="30" height="60" as="geometry" />
        </mxCell>
        <mxCell id="uQ26_WENKduQW5tb3NPD-80" value="Đăng nhập" style="ellipse;whiteSpace=wrap;html=1;" parent="1" vertex="1">
          <mxGeometry x="197.5" y="1130" width="80" height="50" as="geometry" />
        </mxCell>
        <mxCell id="uQ26_WENKduQW5tb3NPD-83" value="" style="endArrow=classic;html=1;rounded=0;exitX=0.5;exitY=0.5;exitDx=0;exitDy=0;exitPerimeter=0;entryX=0;entryY=0.5;entryDx=0;entryDy=0;" parent="1" source="uQ26_WENKduQW5tb3NPD-79" target="uQ26_WENKduQW5tb3NPD-80" edge="1">
          <mxGeometry width="50" height="50" relative="1" as="geometry">
            <mxPoint x="400" y="1050" as="sourcePoint" />
            <mxPoint x="450" y="1000" as="targetPoint" />
          </mxGeometry>
        </mxCell>
        <mxCell id="uQ26_WENKduQW5tb3NPD-84" value="Quản lý đơn hàng" style="ellipse;whiteSpace=wrap;html=1;" parent="1" vertex="1">
          <mxGeometry x="390" y="1122.5" width="80" height="65" as="geometry" />
        </mxCell>
        <mxCell id="uQ26_WENKduQW5tb3NPD-85" value="Xem chi tiết đơn hàng" style="ellipse;whiteSpace=wrap;html=1;" parent="1" vertex="1">
          <mxGeometry x="560" y="1120" width="80" height="70" as="geometry" />
        </mxCell>
        <mxCell id="uQ26_WENKduQW5tb3NPD-86" value="" style="endArrow=classic;dashed=1;html=1;dashPattern=1 3;strokeWidth=2;rounded=0;exitX=1;exitY=0.5;exitDx=0;exitDy=0;entryX=0;entryY=0.5;entryDx=0;entryDy=0;endFill=1;" parent="1" source="uQ26_WENKduQW5tb3NPD-80" target="uQ26_WENKduQW5tb3NPD-84" edge="1">
          <mxGeometry width="50" height="50" relative="1" as="geometry">
            <mxPoint x="400" y="1050" as="sourcePoint" />
            <mxPoint x="450" y="1000" as="targetPoint" />
          </mxGeometry>
        </mxCell>
        <mxCell id="uQ26_WENKduQW5tb3NPD-88" value="&amp;lt;&amp;lt;include&amp;gt;&amp;gt;" style="edgeLabel;html=1;align=center;verticalAlign=middle;resizable=0;points=[];" parent="uQ26_WENKduQW5tb3NPD-86" vertex="1" connectable="0">
          <mxGeometry x="-0.5079" y="-1" relative="1" as="geometry">
            <mxPoint x="13" y="-1" as="offset" />
          </mxGeometry>
        </mxCell>
        <mxCell id="uQ26_WENKduQW5tb3NPD-87" value="" style="endArrow=none;dashed=1;html=1;rounded=0;exitX=1;exitY=0.5;exitDx=0;exitDy=0;entryX=0;entryY=0.5;entryDx=0;entryDy=0;endFill=0;startArrow=classic;startFill=1;" parent="1" source="uQ26_WENKduQW5tb3NPD-84" target="uQ26_WENKduQW5tb3NPD-85" edge="1">
          <mxGeometry width="50" height="50" relative="1" as="geometry">
            <mxPoint x="400" y="1050" as="sourcePoint" />
            <mxPoint x="450" y="1000" as="targetPoint" />
          </mxGeometry>
        </mxCell>
        <mxCell id="uQ26_WENKduQW5tb3NPD-90" value="&amp;lt;&amp;lt;extend&amp;gt;&amp;gt;" style="edgeLabel;html=1;align=center;verticalAlign=middle;resizable=0;points=[];" parent="uQ26_WENKduQW5tb3NPD-87" vertex="1" connectable="0">
          <mxGeometry x="-0.3378" y="1" relative="1" as="geometry">
            <mxPoint x="20" y="1" as="offset" />
          </mxGeometry>
        </mxCell>
        <mxCell id="uQ26_WENKduQW5tb3NPD-91" value="Người Dùng" style="shape=umlActor;verticalLabelPosition=bottom;verticalAlign=top;html=1;outlineConnect=0;" parent="1" vertex="1">
          <mxGeometry x="40" y="1370" width="30" height="60" as="geometry" />
        </mxCell>
        <mxCell id="uQ26_WENKduQW5tb3NPD-92" value="Đăng nhập" style="ellipse;whiteSpace=wrap;html=1;" parent="1" vertex="1">
          <mxGeometry x="160" y="1375" width="80" height="50" as="geometry" />
        </mxCell>
        <mxCell id="uQ26_WENKduQW5tb3NPD-93" value="" style="endArrow=classic;html=1;rounded=0;exitX=0.5;exitY=0.5;exitDx=0;exitDy=0;exitPerimeter=0;entryX=0;entryY=0.5;entryDx=0;entryDy=0;" parent="1" source="uQ26_WENKduQW5tb3NPD-91" target="uQ26_WENKduQW5tb3NPD-92" edge="1">
          <mxGeometry width="50" height="50" relative="1" as="geometry">
            <mxPoint x="400" y="1207.5" as="sourcePoint" />
            <mxPoint x="450" y="1157.5" as="targetPoint" />
          </mxGeometry>
        </mxCell>
        <mxCell id="uQ26_WENKduQW5tb3NPD-94" value="Quản lý tài khoản" style="ellipse;whiteSpace=wrap;html=1;" parent="1" vertex="1">
          <mxGeometry x="330" y="1367.5" width="80" height="65" as="geometry" />
        </mxCell>
        <mxCell id="uQ26_WENKduQW5tb3NPD-95" value="" style="endArrow=classic;dashed=1;html=1;dashPattern=1 3;strokeWidth=2;rounded=0;exitX=1;exitY=0.5;exitDx=0;exitDy=0;entryX=0;entryY=0.5;entryDx=0;entryDy=0;endFill=1;" parent="1" source="uQ26_WENKduQW5tb3NPD-92" target="uQ26_WENKduQW5tb3NPD-94" edge="1">
          <mxGeometry width="50" height="50" relative="1" as="geometry">
            <mxPoint x="400" y="1207.5" as="sourcePoint" />
            <mxPoint x="450" y="1157.5" as="targetPoint" />
          </mxGeometry>
        </mxCell>
        <mxCell id="uQ26_WENKduQW5tb3NPD-96" value="&amp;lt;&amp;lt;include&amp;gt;&amp;gt;" style="edgeLabel;html=1;align=center;verticalAlign=middle;resizable=0;points=[];" parent="uQ26_WENKduQW5tb3NPD-95" vertex="1" connectable="0">
          <mxGeometry x="-0.5079" y="-1" relative="1" as="geometry">
            <mxPoint x="13" y="-1" as="offset" />
          </mxGeometry>
        </mxCell>
        <mxCell id="uQ26_WENKduQW5tb3NPD-97" value="&amp;lt;&amp;lt;include&amp;gt;&amp;gt;" style="edgeLabel;html=1;align=center;verticalAlign=middle;resizable=0;points=[];" parent="1" vertex="1" connectable="0">
          <mxGeometry x="450" y="1370" as="geometry">
            <mxPoint x="-2" y="2" as="offset" />
          </mxGeometry>
        </mxCell>
        <mxCell id="uQ26_WENKduQW5tb3NPD-98" value="Xem thông tin cá nhân" style="ellipse;whiteSpace=wrap;html=1;" parent="1" vertex="1">
          <mxGeometry x="470" y="1302.5" width="110" height="57.5" as="geometry" />
        </mxCell>
        <mxCell id="uQ26_WENKduQW5tb3NPD-99" value="" style="endArrow=classic;dashed=1;html=1;rounded=0;exitX=1;exitY=0.5;exitDx=0;exitDy=0;endFill=1;" parent="1" source="uQ26_WENKduQW5tb3NPD-94" target="uQ26_WENKduQW5tb3NPD-98" edge="1">
          <mxGeometry width="50" height="50" relative="1" as="geometry">
            <mxPoint x="400" y="1140" as="sourcePoint" />
            <mxPoint x="450" y="1090" as="targetPoint" />
          </mxGeometry>
        </mxCell>
        <mxCell id="uQ26_WENKduQW5tb3NPD-100" value="Xem thông tin tài khoản" style="ellipse;whiteSpace=wrap;html=1;" parent="1" vertex="1">
          <mxGeometry x="465" y="1425" width="120" height="60" as="geometry" />
        </mxCell>
        <mxCell id="uQ26_WENKduQW5tb3NPD-101" value="Cập nhật thông tin cá nhân" style="ellipse;whiteSpace=wrap;html=1;" parent="1" vertex="1">
          <mxGeometry x="620" y="1230" width="100" height="50" as="geometry" />
        </mxCell>
        <mxCell id="uQ26_WENKduQW5tb3NPD-102" value="Đổi mật khẩu" style="ellipse;whiteSpace=wrap;html=1;" parent="1" vertex="1">
          <mxGeometry x="619.9999999999999" y="1510" width="100" height="50" as="geometry" />
        </mxCell>
        <mxCell id="uQ26_WENKduQW5tb3NPD-103" value="" style="endArrow=none;dashed=1;html=1;rounded=0;entryX=0.5;entryY=1;entryDx=0;entryDy=0;exitX=1;exitY=0;exitDx=0;exitDy=0;startArrow=classic;startFill=1;" parent="1" source="uQ26_WENKduQW5tb3NPD-98" target="uQ26_WENKduQW5tb3NPD-101" edge="1">
          <mxGeometry width="50" height="50" relative="1" as="geometry">
            <mxPoint x="400" y="1330" as="sourcePoint" />
            <mxPoint x="450" y="1280" as="targetPoint" />
          </mxGeometry>
        </mxCell>
        <mxCell id="uQ26_WENKduQW5tb3NPD-104" value="&amp;lt;&amp;lt;extend&amp;gt;&amp;gt;" style="edgeLabel;html=1;align=center;verticalAlign=middle;resizable=0;points=[];" parent="uQ26_WENKduQW5tb3NPD-103" vertex="1" connectable="0">
          <mxGeometry x="-0.3099" relative="1" as="geometry">
            <mxPoint x="13" y="-7" as="offset" />
          </mxGeometry>
        </mxCell>
        <mxCell id="uQ26_WENKduQW5tb3NPD-105" value="" style="endArrow=none;dashed=1;html=1;rounded=0;entryX=0.5;entryY=0;entryDx=0;entryDy=0;exitX=1;exitY=1;exitDx=0;exitDy=0;startArrow=classic;startFill=1;" parent="1" source="uQ26_WENKduQW5tb3NPD-100" target="uQ26_WENKduQW5tb3NPD-102" edge="1">
          <mxGeometry width="50" height="50" relative="1" as="geometry">
            <mxPoint x="592" y="1481" as="sourcePoint" />
            <mxPoint x="658" y="1440" as="targetPoint" />
          </mxGeometry>
        </mxCell>
        <mxCell id="uQ26_WENKduQW5tb3NPD-106" value="&amp;lt;&amp;lt;extend&amp;gt;&amp;gt;" style="edgeLabel;html=1;align=center;verticalAlign=middle;resizable=0;points=[];" parent="uQ26_WENKduQW5tb3NPD-105" vertex="1" connectable="0">
          <mxGeometry x="-0.3099" relative="1" as="geometry">
            <mxPoint x="13" y="8" as="offset" />
          </mxGeometry>
        </mxCell>
        <mxCell id="uQ26_WENKduQW5tb3NPD-107" value="" style="shape=stencil(fZbdcgIhDIWfZm8zQAg/17Z9j85U606tdqz9e/tmZ0c0uJ47xP0I5JwEBl59bp8/1kNwn6fj4W39M76ctgM/DCGM++36OJ50NPDjwKvN4bh+PR6+9i/z74/n6ctp9H74nlb4nbmSKZeJCu5vngmZ6jzzNAO7cX8FVKEsBuBKrgKg9oAE8gkCbLeUhEoEQKSUDZDLeWYRKIl8MEDRmHwfyBrBG6Amyu4+kDxxMoB3jhwgYu7TVAsVkFcWCs4CTBEoF4RctKeOxHIf8IXYpikHikAIf+MNUW94AGSSaoAoFIE3AlOyeWU+p2E5S9yfQZcQILVuQOwZdJNoS9Ls3wA5u2XZTIHECqeJ9kDpSaauRiNVcAY1QhdBzeLBli5WazpkSsBLV25uRaqWRyFawTQzRRIQYirJzq5atkBqLfouwqUxLBepthWb10vrWZY6UOAeyKCCtDV625mm9gmUC4Wc3VLJMMIE1BsA2FW9JraVlQB7n3c9oMKhCLEvIM1zBPZ25/umNQ1tVEC2G+fFCC8g398O2hNQuQlVu752DBfA+q0ptnqO5JFmeuIuo9DY7KjY71UxdJV4EntifPWorW++R/dC4t7V3DlIB5cHx2bc7eb3yvX//QNFp+bHDT/+Aw==);lineShape=1;" parent="1" vertex="1">
          <mxGeometry x="610.2679852565384" y="-258.92469059323844" width="4.672539772115215" height="4.665236216357243" as="geometry" />
        </mxCell>
        <mxCell id="H3usViVKHo8x3J7pcbkd-2" value="Xóa loại sản phẩm" style="ellipse;whiteSpace=wrap;html=1;" parent="1" vertex="1">
          <mxGeometry x="192.5" y="-110" width="90" height="60" as="geometry" />
        </mxCell>
        <mxCell id="H3usViVKHo8x3J7pcbkd-3" value="" style="endArrow=classic;dashed=1;html=1;rounded=0;exitX=1;exitY=0.5;exitDx=0;exitDy=0;endFill=1;" parent="1" source="H3usViVKHo8x3J7pcbkd-2" target="uQ26_WENKduQW5tb3NPD-69" edge="1">
          <mxGeometry width="50" height="50" relative="1" as="geometry">
            <mxPoint x="400" y="10" as="sourcePoint" />
            <mxPoint x="360" y="-80" as="targetPoint" />
          </mxGeometry>
        </mxCell>
        <mxCell id="H3usViVKHo8x3J7pcbkd-4" value="&amp;lt;&amp;lt;include&amp;gt;&amp;gt;" style="edgeLabel;html=1;align=center;verticalAlign=middle;resizable=0;points=[];" parent="H3usViVKHo8x3J7pcbkd-3" vertex="1" connectable="0">
          <mxGeometry x="-0.3531" y="1" relative="1" as="geometry">
            <mxPoint x="10" y="1" as="offset" />
          </mxGeometry>
        </mxCell>
        <mxCell id="H3usViVKHo8x3J7pcbkd-6" value="" style="endArrow=classic;html=1;rounded=0;exitX=0.5;exitY=0.5;exitDx=0;exitDy=0;exitPerimeter=0;entryX=0;entryY=0.5;entryDx=0;entryDy=0;" parent="1" source="uQ26_WENKduQW5tb3NPD-65" target="H3usViVKHo8x3J7pcbkd-2" edge="1">
          <mxGeometry width="50" height="50" relative="1" as="geometry">
            <mxPoint x="400" y="10" as="sourcePoint" />
            <mxPoint x="450" y="-40" as="targetPoint" />
          </mxGeometry>
        </mxCell>
        <mxCell id="H3usViVKHo8x3J7pcbkd-7" value="" style="endArrow=classic;dashed=1;html=1;rounded=0;entryX=0;entryY=0.5;entryDx=0;entryDy=0;exitX=0.99;exitY=0.768;exitDx=0;exitDy=0;exitPerimeter=0;endFill=1;" parent="1" source="uQ26_WENKduQW5tb3NPD-94" target="uQ26_WENKduQW5tb3NPD-100" edge="1">
          <mxGeometry width="50" height="50" relative="1" as="geometry">
            <mxPoint x="400" y="1310" as="sourcePoint" />
            <mxPoint x="450" y="1260" as="targetPoint" />
          </mxGeometry>
        </mxCell>
        <mxCell id="H3usViVKHo8x3J7pcbkd-8" value="&amp;lt;&amp;lt;include&amp;gt;&amp;gt;" style="edgeLabel;html=1;align=center;verticalAlign=middle;resizable=0;points=[];" parent="H3usViVKHo8x3J7pcbkd-7" vertex="1" connectable="0">
          <mxGeometry x="0.3799" relative="1" as="geometry">
            <mxPoint x="-7" y="-11" as="offset" />
          </mxGeometry>
        </mxCell>
        <mxCell id="1kNKOlALQS5OSKf6qZ73-1" value="Admin" style="shape=umlActor;verticalLabelPosition=bottom;verticalAlign=top;html=1;outlineConnect=0;" vertex="1" parent="1">
          <mxGeometry x="50" y="-420" width="30" height="60" as="geometry" />
        </mxCell>
        <mxCell id="1kNKOlALQS5OSKf6qZ73-2" value="Xem thông tin người dùng" style="ellipse;whiteSpace=wrap;html=1;" vertex="1" parent="1">
          <mxGeometry x="200" y="-430" width="190" height="80" as="geometry" />
        </mxCell>
        <mxCell id="1kNKOlALQS5OSKf6qZ73-3" value="" style="endArrow=classic;html=1;rounded=0;entryX=0;entryY=0.5;entryDx=0;entryDy=0;exitX=0.5;exitY=0.5;exitDx=0;exitDy=0;exitPerimeter=0;" edge="1" parent="1" source="1kNKOlALQS5OSKf6qZ73-1" target="1kNKOlALQS5OSKf6qZ73-2">
          <mxGeometry width="50" height="50" relative="1" as="geometry">
            <mxPoint x="80" y="-390" as="sourcePoint" />
            <mxPoint x="410" y="-350" as="targetPoint" />
          </mxGeometry>
        </mxCell>
        <mxCell id="1kNKOlALQS5OSKf6qZ73-4" value="Đăng Nhập" style="ellipse;whiteSpace=wrap;html=1;" vertex="1" parent="1">
          <mxGeometry x="520" y="-420" width="90" height="60" as="geometry" />
        </mxCell>
        <mxCell id="1kNKOlALQS5OSKf6qZ73-5" value="" style="endArrow=classic;dashed=1;html=1;rounded=0;exitX=1;exitY=0.5;exitDx=0;exitDy=0;endFill=1;" edge="1" parent="1" target="1kNKOlALQS5OSKf6qZ73-4">
          <mxGeometry width="50" height="50" relative="1" as="geometry">
            <mxPoint x="390" y="-390.5" as="sourcePoint" />
            <mxPoint x="520" y="-390.5" as="targetPoint" />
          </mxGeometry>
        </mxCell>
        <mxCell id="1kNKOlALQS5OSKf6qZ73-6" value="&amp;lt;&amp;lt;include&amp;gt;&amp;gt;" style="edgeLabel;html=1;align=center;verticalAlign=middle;resizable=0;points=[];" vertex="1" connectable="0" parent="1kNKOlALQS5OSKf6qZ73-5">
          <mxGeometry x="-0.1877" relative="1" as="geometry">
            <mxPoint as="offset" />
          </mxGeometry>
        </mxCell>
      </root>
    </mxGraphModel>
  </diagram>
</mxfile>
